<svg id="Layer_1" data-name="Layer 1" xmlns="http://www.w3.org/2000/svg" viewBox="0 0 64 64"><path d="M47.484,8.689A29.291,29.291,0,0,0,40.031,4.08,1,1,0,0,0,38.8,5.537,27.733,27.733,0,0,1,36.6,38.223,26.994,26.994,0,0,1,3.454,45.278a1,1,0,0,0-1.332,1.37,29.483,29.483,0,0,0,6.838,8.4A29.079,29.079,0,0,0,27.865,62q1.3,0,2.614-.115A29.817,29.817,0,0,0,50.937,51.112,30.351,30.351,0,0,0,47.484,8.689ZM49.4,49.834A27.825,27.825,0,0,1,30.305,59.9a27.12,27.12,0,0,1-20.052-6.374,27.444,27.444,0,0,1-4.7-5.136A29.027,29.027,0,0,0,38.142,39.5,29.759,29.759,0,0,0,42.1,7.338a27.441,27.441,0,0,1,4.1,2.876A28.345,28.345,0,0,1,49.4,49.834Z" id="id_101" style="fill: rgb(255, 190, 152);"></path><path d="M3.676,7.6l-.324,1.89A1,1,0,0,0,4.8,10.542L6.5,9.65l1.7.892A1,1,0,0,0,9.648,9.488L9.324,7.6,10.7,6.259a1,1,0,0,0-.554-1.706l-1.9-.276L7.4,2.557a1.041,1.041,0,0,0-1.792,0l-.85,1.72-1.9.276A1,1,0,0,0,2.3,6.259ZM5.562,6.181a1,1,0,0,0,.752-.547L6.5,5.259l.186.375a1,1,0,0,0,.752.547l.413.06-.3.291a1,1,0,0,0-.287.885l.07.412-.369-.194a1,1,0,0,0-.932,0l-.369.194.07-.412a1,1,0,0,0-.287-.885l-.3-.291Z" id="id_102" style="fill: rgb(255, 190, 152);"></path><path d="M28.948,12.5a1,1,0,0,0-.8-.671l-2.927-.447L23.905,8.575a1,1,0,0,0-1.81,0l-1.319,2.809-2.927.447a1,1,0,0,0-.565,1.687l2.148,2.2-.509,3.12a1,1,0,0,0,1.471,1.036L23,18.435l2.606,1.44a1,1,0,0,0,1.471-1.036l-.509-3.12,2.148-2.2A1,1,0,0,0,28.948,12.5Zm-4.164,2.182a1,1,0,0,0-.271.859l.258,1.586-1.288-.712a1,1,0,0,0-.966,0l-1.288.712.258-1.586a1,1,0,0,0-.271-.859l-1.141-1.169,1.531-.234a1,1,0,0,0,.754-.564L23,11.354l.64,1.363a1,1,0,0,0,.754.564l1.531.234Z" id="id_103" style="fill: rgb(255, 190, 152);"></path><rect x="58" y="41" width="4" height="2" id="id_104" style="fill: rgb(255, 190, 152);"></rect><path d="M15,34H29.467l-9.991,6.148A1,1,0,0,0,20,42h9V40H23.533l9.991-6.148A1,1,0,0,0,33,32H15Z" id="id_105" style="fill: rgb(255, 190, 152);"></path><rect x="11" y="32" width="2" height="2" id="id_106" style="fill: rgb(255, 190, 152);"></rect><rect x="51.21" y="56" width="6.79" height="2" id="id_107" style="fill: rgb(255, 190, 152);"></rect></svg>